<svg width="500" height="80" viewBox="0 0 500 80" fill="none" xmlns="http://www.w3.org/2000/svg">
<g clip-path="url(#clip0_17963_13413)">
<path fill-rule="evenodd" clip-rule="evenodd" d="M498.719 27.095V24.332H485.666C484.48 24.332 483.345 24.8098 482.516 25.6575L480.554 27.6642C479.748 28.4876 479.297 29.5936 479.297 30.7453V35.4196C479.297 36.418 479.634 37.6956 480.19 38.7756C480.73 39.8265 481.578 40.8818 482.717 41.1434L482.782 41.1584L495.878 41.3139C495.946 41.3444 496.056 41.4214 496.196 41.5976C496.362 41.8076 496.523 42.1003 496.666 42.4424C496.954 43.1366 497.112 43.9047 497.112 44.3301V49.093C497.112 49.547 496.924 49.9809 496.592 50.2916L494.284 52.4575C493.979 52.7432 493.577 52.9024 493.159 52.9024H480.371V55.6654H493.159C494.279 55.6654 495.357 55.2389 496.174 54.4726L498.483 52.3068C499.371 51.4738 499.874 50.3105 499.874 49.093V44.3301C499.874 43.3317 499.538 42.0541 498.982 40.974C498.442 39.9232 497.594 38.8679 496.454 38.6063L496.389 38.5912L483.294 38.4358C483.226 38.4054 483.116 38.3283 482.976 38.152C482.81 37.9422 482.648 37.6494 482.506 37.3072C482.218 36.6132 482.06 35.845 482.06 35.4196V30.7453C482.06 30.3157 482.228 29.9032 482.529 29.5961L484.491 27.5894C484.8 27.2733 485.224 27.095 485.666 27.095H498.719Z" fill="white"/>
<path fill-rule="evenodd" clip-rule="evenodd" d="M472.046 39.6381C472.102 39.5865 472.157 39.5346 472.208 39.4833L473.135 38.5614C473.721 37.978 474.124 37.4652 474.36 36.8372C474.591 36.2201 474.638 35.5521 474.638 34.7158V31.0794C474.638 30.2431 474.591 29.5751 474.36 28.9579C474.124 28.3299 473.721 27.8172 473.135 27.2338L471.721 25.827C471.144 25.2533 470.601 24.857 469.912 24.621C469.242 24.3914 468.484 24.332 467.519 24.332H455.582C455.223 24.332 454.813 24.4028 454.513 24.7157C454.217 25.0231 454.164 25.4252 454.164 25.744V54.2534C454.164 54.5723 454.217 54.9744 454.513 55.2817C454.813 55.5946 455.223 55.6654 455.582 55.6654H468.347C469.312 55.6654 470.07 55.606 470.74 55.3764C471.429 55.1405 471.973 54.7443 472.549 54.1704L473.963 52.7636C474.549 52.1803 474.953 51.6675 475.189 51.0395C475.421 50.4224 475.467 49.7544 475.467 48.918V45.379C475.467 44.5427 475.421 43.8747 475.189 43.2575C474.953 42.6296 474.549 42.1168 473.963 41.5334L472.402 39.9853L472.401 39.9845L472.355 39.9394C472.252 39.8359 472.15 39.7345 472.046 39.6381ZM468.791 27.1146C469.075 27.2088 469.31 27.3616 469.602 27.652L470.918 28.9614C471.359 29.4006 471.527 29.6117 471.619 29.8326C471.712 30.0558 471.753 30.3535 471.753 31.0316V34.8132C471.753 35.4902 471.712 35.788 471.619 36.0116C471.527 36.2328 471.359 36.4445 470.918 36.8833L470.139 37.6584C469.751 38.0451 469.525 38.1867 469.333 38.2553C469.128 38.3284 468.893 38.3453 468.395 38.3453H457.045V26.965H467.421C468.083 26.965 468.488 27.0139 468.791 27.1146ZM472.448 44.087C472.356 43.8658 472.188 43.654 471.747 43.2152L470.478 41.9549C470.008 41.4863 469.743 41.2529 469.483 41.1165C469.249 40.9946 468.974 40.9286 468.443 40.9286H457.045V53.0362H468.25C468.912 53.0362 469.317 52.9877 469.62 52.8872C469.903 52.7934 470.138 52.6406 470.431 52.3493L471.747 51.0398C472.188 50.601 472.356 50.3892 472.448 50.168C472.541 49.9444 472.582 49.6466 472.582 48.9696V45.2854C472.582 44.6084 472.541 44.3106 472.448 44.087Z" fill="white"/>
<path fill-rule="evenodd" clip-rule="evenodd" d="M442.425 26.576C441.93 25.6954 441.391 25.0986 440.683 24.7461C439.991 24.4018 439.216 24.332 438.351 24.332H436.371C435.506 24.332 434.731 24.4018 434.039 24.7461C433.331 25.0986 432.792 25.695 432.297 26.5756L427.421 35.2708L427.419 35.2741C426.876 36.2567 426.531 37.023 426.331 37.8724C426.133 38.7152 426.086 39.6041 426.086 40.8148V55.6654H428.893V46.6832H445.833V55.6654H448.64V40.8148C448.64 39.6039 448.592 38.7144 448.393 37.8714C448.193 37.0218 447.848 36.2555 447.305 35.2738L442.425 26.576ZM445.831 40.8168V43.9798H428.891V40.8168C428.891 38.8743 429.119 37.8383 429.871 36.5179L434.651 28.0135V28.0123C434.943 27.498 435.145 27.3022 435.344 27.2C435.56 27.0888 435.872 27.0354 436.516 27.0354H438.206C438.851 27.0354 439.162 27.0888 439.378 27.2C439.577 27.3022 439.779 27.498 440.071 28.0123V28.0135L444.849 36.5147L444.851 36.5179C445.603 37.8383 445.831 38.8743 445.831 40.8168Z" fill="white"/>
<path fill-rule="evenodd" clip-rule="evenodd" d="M404.999 52.9866V24.332H402.117V54.2534C402.117 54.5723 402.171 54.974 402.465 55.2812C402.765 55.5944 403.175 55.6654 403.533 55.6654H420.103V52.9866H404.999Z" fill="white"/>
<path d="M374.237 42.4264H387.19V37.4735H374.237V29.285H389.83V24.332H370.121C369.003 24.332 368.547 24.7877 368.547 25.8981V54.0993C368.547 55.2116 369.005 55.6654 370.121 55.6654H390.184V50.7124H374.235V42.4264H374.237Z" fill="white"/>
<path d="M359.149 43.8918L360.571 42.477C362.045 41.0125 362.399 40.3042 362.399 37.8268V32.0146C362.399 29.5374 362.043 28.831 360.571 27.3645L359.149 25.9498C357.829 24.6365 356.711 24.332 354.425 24.332H339.543C338.425 24.332 337.969 24.7877 337.969 25.898V55.6654H343.658V45.5074H352.547L356.661 55.6654H362.705L358.133 44.7494C358.489 44.4966 358.793 44.2459 359.149 43.8918ZM356.761 37.7254C356.761 38.1293 356.659 38.382 356.303 38.7362L354.931 40.1012C354.575 40.4554 354.219 40.5568 353.611 40.5568H343.656V29.2866H353.561C354.273 29.2866 354.627 29.4378 355.085 29.8935L356.153 30.9541C356.611 31.4098 356.763 31.7122 356.763 32.3191V37.7254H356.761Z" fill="white"/>
<path d="M325.225 27.085C323.866 24.9331 323.212 24.332 320.295 24.332H317.58C314.662 24.332 314.009 24.9331 312.65 27.085L307.72 34.9932C306.414 37.0447 306.211 38.6468 306.211 40.9998V55.6654H311.794V47.7079H326.08V55.6654H331.664V40.9998C331.664 38.6468 331.462 37.0467 330.154 34.9932L325.225 27.085ZM326.078 42.801H311.792V40.8993C311.792 39.3976 312.044 38.5463 312.698 37.496L317.275 29.9878C317.526 29.5878 317.677 29.5365 318.13 29.5365H319.74C320.194 29.5365 320.345 29.5878 320.596 29.9878L325.173 37.496C325.827 38.5463 326.078 39.3976 326.078 40.8993V42.801Z" fill="white"/>
<path d="M294.512 41.9004C294.512 42.4009 294.359 42.7517 294.058 43.1518L288.374 50.7092L282.69 43.1518C282.389 42.7517 282.236 42.4009 282.236 41.9004V24.332H276.603V41.9004C276.603 42.4009 276.453 42.7517 276.15 43.1518L270.466 50.7092L264.781 43.1518C264.481 42.7517 264.328 42.4009 264.328 41.9004V24.332H258.695V41.6501C258.695 43.9026 259.097 44.7026 260.205 46.155L266.14 53.9627C266.944 55.0131 267.901 55.6654 269.812 55.6654H271.121C273.033 55.6654 273.989 55.015 274.793 53.9627L279.422 47.9069L284.051 53.9627C284.855 55.0131 285.811 55.6654 287.723 55.6654H289.031C290.943 55.6654 291.899 55.015 292.703 53.9627L298.639 46.155C299.747 44.7046 300.149 43.9026 300.149 41.6501V24.332H294.516V41.9004H294.512Z" fill="white"/>
<path d="M249.073 39.3938L249.733 38.7371C251.207 37.2705 251.613 36.4128 251.613 34.1881V32.0151C251.613 29.5377 251.257 28.8312 249.783 27.3647L248.361 25.9498C247.041 24.6365 246.075 24.332 243.941 24.332H230.074C228.956 24.332 228.5 24.7877 228.5 25.8981V54.0993C228.5 55.2116 228.958 55.6654 230.074 55.6654H244.905C247.039 55.6654 248.005 55.3629 249.325 54.0476L250.747 52.6327C252.221 51.1662 252.577 50.4597 252.577 47.9823V45.6063C252.577 43.1288 252.221 42.5239 250.747 41.0574L249.073 39.3938ZM234.192 29.1854H242.877C243.487 29.1854 243.843 29.287 244.197 29.6412L245.569 31.0062C245.925 31.3604 246.027 31.6132 246.027 32.0171V34.797C246.027 35.201 245.925 35.4537 245.569 35.8079L244.299 37.0715C243.943 37.4257 243.587 37.5272 242.979 37.5272H234.192V29.1854ZM246.941 47.9862C246.941 48.3902 246.839 48.6429 246.483 48.9972L245.111 50.3622C244.755 50.7164 244.399 50.8179 243.789 50.8179H234.19V42.2234H243.891C244.501 42.2234 244.857 42.3249 245.211 42.6791L246.481 43.9427C246.837 44.297 246.939 44.5496 246.939 44.9536V47.9862H246.941Z" fill="white"/>
<path d="M217.826 27.7181L217.831 27.7134L185.923 0.281161C185.487 -0.0937204 184.844 -0.0937204 184.408 0.281161L152.5 27.7134L152.502 27.7181V52.2913H152.505L184.408 79.7187C184.844 80.094 185.487 80.094 185.923 79.7187L217.826 52.2913H217.833V27.7181H217.826ZM188.77 6.94107L211.9 26.8267C212.442 27.2927 212.442 28.134 211.9 28.6001L201.848 37.2423C201.412 37.6171 200.768 37.6171 200.332 37.2423L186.848 25.6492V7.8278C186.848 6.83 188.015 6.29172 188.77 6.94107ZM185.165 3.84225L185.17 3.84693H185.161L185.165 3.84225ZM183.581 7.74353V25.565L169.999 37.2423C169.563 37.6171 168.919 37.6171 168.483 37.2423L158.431 28.6001C157.889 28.134 157.889 27.2927 158.431 26.8267L181.659 6.8568C182.414 6.20747 183.581 6.74573 183.581 7.74353ZM157.691 32.1765L165.76 39.1133C166.302 39.5793 166.302 40.4206 165.76 40.8867L157.691 47.8235C156.936 48.4728 155.769 47.9345 155.769 46.9367V33.0633C155.769 32.0655 156.936 31.5272 157.691 32.1765ZM181.659 73.1433L158.431 53.1733C157.889 52.7072 157.889 51.866 158.431 51.3999L168.483 42.7577C168.919 42.3829 169.563 42.3829 169.999 42.7577L183.581 54.435V72.2567C183.581 73.254 182.414 73.7927 181.659 73.1433ZM172.722 40.8867C172.18 40.4207 172.18 39.5793 172.722 39.1133L185.161 28.4201L185.165 28.4155L185.17 28.4201L197.609 39.1133C198.151 39.5793 198.151 40.4207 197.609 40.8867L185.165 51.5845L172.722 40.8867ZM186.848 72.172V54.3518L186.849 54.3501L200.332 42.7577C200.768 42.3829 201.412 42.3829 201.848 42.7577L211.9 51.3999C212.442 51.866 212.442 52.7072 211.9 53.1733L188.77 73.0587C188.015 73.708 186.848 73.17 186.848 72.172ZM212.645 47.828L204.571 40.8867C204.029 40.4206 204.029 39.5794 204.571 39.1133L212.645 32.172C213.4 31.5226 214.567 32.0609 214.567 33.0587V46.9413C214.567 47.9391 213.4 48.4773 212.645 47.828Z" fill="#FDB913"/>
<path d="M10.9467 48.0533C12.0469 48.0533 12.9731 47.928 13.7251 47.6773C14.4911 47.4127 15.1109 47.0575 15.5844 46.6119C16.0718 46.1662 16.42 45.6439 16.6289 45.0451C16.8518 44.4323 16.9632 43.7777 16.9632 43.0814C16.9632 41.6608 16.4757 40.5466 15.5008 39.7389C14.5399 38.9172 13.0148 38.5063 10.9258 38.5063H4.8884V48.0533H10.9467ZM4.8884 25.6586V35.0594H9.7768C11.8659 35.0594 13.4257 34.6555 14.4563 33.8477C15.4869 33.0399 16.0022 31.877 16.0022 30.359C16.0022 28.7017 15.5148 27.5039 14.5399 26.7658C13.5789 26.0277 12.0678 25.6586 10.0066 25.6586H4.8884ZM10.0066 21.8356C11.9285 21.8356 13.5719 22.0236 14.9368 22.3997C16.3016 22.7618 17.4228 23.284 18.3002 23.9665C19.1776 24.6489 19.8182 25.4845 20.2221 26.4733C20.6399 27.4482 20.8488 28.5485 20.8488 29.7741C20.8488 30.4843 20.7374 31.1737 20.5146 31.8422C20.3057 32.4968 19.9714 33.1165 19.5118 33.7015C19.0662 34.2725 18.5021 34.7878 17.8197 35.2474C17.1373 35.707 16.3295 36.09 15.3964 36.3964C19.6581 37.3016 21.7889 39.5648 21.7889 43.1858C21.7889 44.4671 21.5452 45.6439 21.0577 46.7163C20.5842 47.7748 19.8879 48.694 18.9687 49.4739C18.0634 50.2399 16.9423 50.8387 15.6053 51.2705C14.2683 51.7022 12.7433 51.9181 11.0302 51.9181H0V21.8356H10.0066Z" fill="white"/>
<path d="M44.0185 30.6097V51.9181H41.3028C40.7039 51.9181 40.3208 51.6326 40.1537 51.0616L39.8196 49.077C39.3739 49.5505 38.9004 49.9822 38.399 50.3722C37.9116 50.7621 37.3893 51.0964 36.8322 51.3749C36.2751 51.6535 35.6763 51.8693 35.0356 52.0225C34.4089 52.1757 33.7333 52.2523 33.0091 52.2523C31.8393 52.2523 30.8088 52.0574 29.9174 51.6674C29.0261 51.2774 28.274 50.7273 27.6611 50.017C27.0624 49.3068 26.6097 48.4572 26.3034 47.4684C25.997 46.4656 25.8438 45.3654 25.8438 44.1677V30.6097H30.3351V44.1677C30.3351 45.6022 30.6625 46.7163 31.3171 47.5102C31.9856 48.304 32.9953 48.7009 34.3462 48.7009C35.3351 48.7009 36.2542 48.4781 37.1038 48.0324C37.9672 47.5728 38.775 46.9461 39.5271 46.1523V30.6097H44.0185Z" fill="white"/>
<path d="M54.1518 30.6097V51.9181H49.6603V30.6097H54.1518ZM54.9038 24.1754C54.9038 24.5793 54.8203 24.9623 54.6532 25.3244C54.5 25.6865 54.2841 26.0068 54.0055 26.2853C53.727 26.5499 53.3997 26.7658 53.0237 26.9329C52.6616 27.0861 52.2716 27.1627 51.8538 27.1627C51.4499 27.1627 51.0669 27.0861 50.7048 26.9329C50.3567 26.7658 50.0503 26.5499 49.7856 26.2853C49.521 26.0068 49.3052 25.6865 49.138 25.3244C48.9848 24.9623 48.9082 24.5793 48.9082 24.1754C48.9082 23.7576 48.9848 23.3676 49.138 23.0055C49.3052 22.6434 49.521 22.33 49.7856 22.0654C50.0503 21.7869 50.3567 21.571 50.7048 21.4178C51.0669 21.2507 51.4499 21.1671 51.8538 21.1671C52.2716 21.1671 52.6616 21.2507 53.0237 21.4178C53.3997 21.571 53.727 21.7869 54.0055 22.0654C54.2841 22.33 54.5 22.6434 54.6532 23.0055C54.8203 23.3676 54.9038 23.7576 54.9038 24.1754Z" fill="white"/>
<path d="M64.3704 21V51.9181H59.8789V21H64.3704Z" fill="white"/>
<path d="M76.7468 52.2523C74.9781 52.2523 73.6132 51.7579 72.6522 50.7691C71.7052 49.7664 71.2317 48.3597 71.2317 46.5492V34.1402H68.8919C68.6412 34.1402 68.4254 34.0636 68.2443 33.9104C68.0633 33.7433 67.9727 33.4995 67.9727 33.1792V31.3617L71.4197 30.8604L72.4015 24.6976C72.4712 24.4609 72.5896 24.2729 72.7567 24.1336C72.9238 23.9804 73.1466 23.9038 73.4252 23.9038H75.7232V30.9021H81.6352V34.1402H75.7232V46.2358C75.7232 47.0018 75.9112 47.5868 76.2872 47.9907C76.6632 48.3945 77.1646 48.5965 77.7913 48.5965C78.1395 48.5965 78.4389 48.5547 78.6896 48.4711C78.9403 48.3737 79.1562 48.2762 79.3372 48.1787C79.5183 48.0673 79.6715 47.9698 79.7968 47.8862C79.9361 47.7887 80.0684 47.74 80.1937 47.74C80.4444 47.74 80.6464 47.8792 80.7996 48.1578L82.1366 50.3513C81.4402 50.9641 80.6185 51.4376 79.6715 51.7719C78.7244 52.0922 77.7495 52.2523 76.7468 52.2523Z" fill="white"/>
<path d="M100.072 46.5701C100.699 47.3779 101.381 47.9489 102.119 48.2831C102.871 48.6034 103.686 48.7636 104.563 48.7636C106.332 48.7636 107.711 48.123 108.7 46.8417C109.689 45.5604 110.183 43.5758 110.183 40.8879C110.183 38.4367 109.751 36.6471 108.888 35.519C108.038 34.3909 106.82 33.8268 105.232 33.8268C104.132 33.8268 103.171 34.0775 102.349 34.5789C101.541 35.0663 100.782 35.7697 100.072 36.6888V46.5701ZM100.072 33.4299C100.949 32.4689 101.931 31.703 103.017 31.1319C104.104 30.5609 105.343 30.2754 106.736 30.2754C107.975 30.2754 109.09 30.5192 110.078 31.0066C111.081 31.4801 111.931 32.1695 112.627 33.0748C113.323 33.98 113.86 35.0803 114.236 36.3755C114.612 37.6568 114.8 39.1052 114.8 40.7207C114.8 42.4477 114.584 44.0214 114.152 45.442C113.734 46.8486 113.129 48.0603 112.335 49.077C111.541 50.0797 110.58 50.8596 109.452 51.4167C108.324 51.9599 107.063 52.2314 105.671 52.2314C104.988 52.2314 104.368 52.1618 103.811 52.0225C103.254 51.8972 102.739 51.7092 102.265 51.4585C101.792 51.2078 101.353 50.9084 100.949 50.5602C100.559 50.212 100.183 49.8151 99.8209 49.3694L99.6329 51.0198C99.5632 51.3401 99.4379 51.5699 99.2568 51.7092C99.0758 51.8485 98.8251 51.9181 98.5048 51.9181H95.5801V21H100.072V33.4299Z" fill="white"/>
<path d="M137.498 30.6097L125.757 57.9764C125.604 58.2967 125.416 58.5474 125.193 58.7284C124.984 58.9095 124.657 59 124.211 59H120.89L124.817 50.4766L116.127 30.6097H120.033C120.409 30.6097 120.695 30.7002 120.89 30.8813C121.099 31.0484 121.252 31.2503 121.349 31.4871L126.426 43.5827C126.551 43.9309 126.662 44.2791 126.76 44.6273C126.871 44.9615 126.976 45.3097 127.073 45.6718C127.185 45.3097 127.296 44.9546 127.408 44.6064C127.519 44.2582 127.644 43.91 127.784 43.5618L132.651 31.4871C132.749 31.2364 132.909 31.0275 133.132 30.8604C133.368 30.6932 133.626 30.6097 133.905 30.6097H137.498Z" fill="white"/>
</g>
<defs>
<clipPath id="clip0_17963_13413">
<rect width="500" height="80" fill="white"/>
</clipPath>
</defs>
</svg>
