<svg width="1566" height="360" viewBox="0 0 1566 360" fill="none" xmlns="http://www.w3.org/2000/svg">
<g clip-path="url(#clip0_1273_249)">
<path fill-rule="evenodd" clip-rule="evenodd" d="M1558 121.934V109.5H1499.26C1493.92 109.5 1488.81 111.65 1485.08 115.465L1476.25 124.495C1472.63 128.2 1470.6 133.177 1470.6 138.36V159.394C1470.6 163.887 1472.12 169.636 1474.61 174.496C1477.05 179.225 1480.86 183.974 1485.99 185.151L1486.28 185.219L1545.21 185.918C1545.52 186.056 1546.01 186.402 1546.64 187.195C1547.39 188.14 1548.11 189.457 1548.76 190.997C1550.06 194.12 1550.76 197.577 1550.76 199.491V220.924C1550.76 222.968 1549.92 224.92 1548.43 226.318L1538.04 236.065C1536.67 237.35 1534.86 238.066 1532.98 238.066H1475.43V250.5H1532.98C1538.02 250.5 1542.87 248.581 1546.55 245.132L1556.93 235.386C1560.93 231.638 1563.2 226.403 1563.2 220.924V199.491C1563.2 194.999 1561.68 189.249 1559.18 184.389C1556.75 179.66 1552.93 174.911 1547.81 173.734L1547.51 173.666L1488.58 172.967C1488.28 172.83 1487.78 172.483 1487.15 171.69C1486.41 170.746 1485.68 169.428 1485.04 167.888C1483.74 164.765 1483.03 161.308 1483.03 159.394V138.36C1483.03 136.426 1483.79 134.57 1485.14 133.188L1493.97 124.158C1495.36 122.736 1497.27 121.934 1499.26 121.934H1558Z" fill="black"/>
<path fill-rule="evenodd" clip-rule="evenodd" d="M1437.97 178.377C1438.22 178.145 1438.47 177.912 1438.7 177.681L1442.87 173.532C1445.5 170.907 1447.32 168.599 1448.38 165.773C1449.42 162.996 1449.63 159.99 1449.63 156.227V139.863C1449.63 136.1 1449.42 133.094 1448.38 130.316C1447.32 127.49 1445.5 125.183 1442.87 122.558L1436.5 116.227C1433.91 113.646 1431.47 111.862 1428.37 110.8C1425.35 109.767 1421.94 109.5 1417.6 109.5H1363.88C1362.26 109.5 1360.42 109.819 1359.07 111.227C1357.74 112.61 1357.5 114.419 1357.5 115.854V244.146C1357.5 245.581 1357.74 247.39 1359.07 248.773C1360.42 250.181 1362.26 250.5 1363.88 250.5H1421.32C1425.67 250.5 1429.08 250.233 1432.09 249.2C1435.19 248.138 1437.64 246.355 1440.23 243.773L1446.6 237.442C1449.23 234.817 1451.05 232.51 1452.11 229.684C1453.15 226.907 1453.36 223.9 1453.36 220.137V204.211C1453.36 200.448 1453.15 197.442 1452.11 194.665C1451.05 191.839 1449.23 189.531 1446.6 186.906L1439.57 179.94L1439.57 179.936L1439.36 179.733C1438.9 179.267 1438.44 178.811 1437.97 178.377ZM1423.32 122.022C1424.6 122.445 1425.66 123.133 1426.97 124.44L1432.89 130.332C1434.88 132.308 1435.64 133.259 1436.05 134.253C1436.47 135.257 1436.65 136.597 1436.65 139.648V156.665C1436.65 159.712 1436.47 161.052 1436.05 162.058C1435.64 163.054 1434.88 164.006 1432.89 165.981L1429.39 169.468C1427.64 171.209 1426.63 171.846 1425.76 172.155C1424.84 172.483 1423.78 172.56 1421.54 172.56H1370.47V121.348H1417.16C1420.13 121.348 1421.96 121.568 1423.32 122.022ZM1439.78 198.397C1439.36 197.402 1438.61 196.449 1436.62 194.474L1430.91 188.803C1428.8 186.694 1427.61 185.644 1426.43 185.03C1425.38 184.481 1424.15 184.185 1421.76 184.185H1370.47V238.669H1420.89C1423.87 238.669 1425.69 238.451 1427.05 237.998C1428.32 237.576 1429.38 236.889 1430.7 235.578L1436.62 229.685C1438.61 227.71 1439.36 226.757 1439.78 225.762C1440.19 224.756 1440.38 223.416 1440.38 220.369V203.79C1440.38 200.743 1440.19 199.403 1439.78 198.397Z" fill="black"/>
<path fill-rule="evenodd" clip-rule="evenodd" d="M1304.68 119.598L1304.67 119.596C1302.45 115.633 1300.02 112.949 1296.84 111.363C1293.72 109.814 1290.23 109.5 1286.34 109.5H1277.43C1273.54 109.5 1270.05 109.814 1266.94 111.363C1263.75 112.949 1261.33 115.633 1259.1 119.596L1237.16 158.724L1237.15 158.739C1234.7 163.161 1233.15 166.609 1232.25 170.432C1231.36 174.224 1231.15 178.224 1231.15 183.673V250.5H1243.78V210.08H1320.01V250.5H1332.64V183.673C1332.64 178.223 1332.43 174.22 1331.53 170.427C1330.63 166.604 1329.08 163.156 1326.63 158.738L1304.68 119.598ZM1320 183.681V197.915H1243.77V183.681C1243.77 174.94 1244.8 170.278 1248.18 164.336L1269.69 126.067L1269.69 126.061C1271.01 123.747 1271.92 122.866 1272.81 122.406C1273.78 121.905 1275.19 121.665 1278.08 121.665H1285.69C1288.59 121.665 1289.99 121.905 1290.96 122.406C1291.86 122.866 1292.77 123.747 1294.08 126.061L1294.08 126.067L1315.58 164.322L1315.59 164.336C1318.98 170.278 1320 174.94 1320 183.681Z" fill="black"/>
<path fill-rule="evenodd" clip-rule="evenodd" d="M1136.26 238.445V109.5H1123.29V244.146C1123.29 245.581 1123.53 247.389 1124.85 248.771C1126.2 250.18 1128.05 250.5 1129.66 250.5H1204.23V238.445H1136.26Z" fill="black"/>
<path d="M997.816 190.925H1056.11V168.637H997.816V131.788H1067.99V109.5H979.294C974.263 109.5 972.211 111.55 972.211 116.547V243.453C972.211 248.458 974.272 250.5 979.294 250.5H1069.58V228.212H997.807V190.925H997.816Z" fill="black"/>
<path d="M929.919 197.519L936.318 191.152C942.951 184.562 944.544 181.375 944.544 170.227V144.072C944.544 132.924 942.942 129.745 936.318 123.146L929.919 116.78C923.979 110.87 918.948 109.5 908.664 109.5H841.692C836.661 109.5 834.609 111.55 834.609 116.547V250.5H860.211V204.789H900.213L918.723 250.5H945.921L925.347 201.378C926.949 200.241 928.317 199.112 929.919 197.519ZM919.173 169.77C919.173 171.588 918.714 172.725 917.115 174.319L910.941 180.461C909.339 182.055 907.737 182.512 905.001 182.512H860.202V131.796H904.776C907.98 131.796 909.573 132.476 911.634 134.527L916.44 139.299C918.498 141.35 919.182 142.711 919.182 145.442V169.77H919.173Z" fill="black"/>
<path d="M777.251 121.889C771.137 112.205 768.194 109.5 755.066 109.5H742.847C729.719 109.5 726.778 112.205 720.664 121.889L698.48 157.475C692.6 166.707 691.688 173.917 691.688 184.505V250.5H716.812V214.691H781.1V250.5H806.225V184.505C806.225 173.917 805.315 166.716 799.432 157.475L777.251 121.889ZM781.091 192.61H716.804V184.053C716.804 177.295 717.938 173.464 720.878 168.738L741.476 134.951C742.607 133.151 743.284 132.92 745.324 132.92H752.57C754.613 132.92 755.291 133.151 756.422 134.951L777.017 168.738C779.96 173.464 781.091 177.295 781.091 184.053V192.61Z" fill="black"/>
<path d="M639.066 188.558C639.066 190.81 638.379 192.388 637.023 194.189L611.445 228.197L585.867 194.189C584.511 192.388 583.824 190.81 583.824 188.558V109.5H558.477V188.558C558.477 190.81 557.802 192.388 556.437 194.189L530.859 228.197L505.278 194.189C503.925 192.388 503.238 190.81 503.238 188.558V109.5H477.891V187.431C477.891 197.567 479.7 201.168 484.683 207.703L511.392 242.838C515.01 247.565 519.315 250.5 527.916 250.5H533.808C542.409 250.5 546.714 247.573 550.332 242.838L571.161 215.587L591.99 242.838C595.608 247.565 599.913 250.5 608.514 250.5H614.403C623.004 250.5 627.309 247.573 630.927 242.838L657.639 207.703C662.622 201.177 664.431 197.567 664.431 187.431V109.5H639.084V188.558H639.066Z" fill="black"/>
<path d="M434.58 177.278L437.55 174.323C444.183 167.723 446.01 163.864 446.01 153.852V144.074C446.01 132.926 444.408 129.746 437.775 123.147L431.376 116.78C425.436 110.87 421.089 109.5 411.486 109.5H349.083C344.052 109.5 342 111.55 342 116.547V243.453C342 248.458 344.061 250.5 349.083 250.5H415.824C425.427 250.5 429.774 249.139 435.714 243.22L442.113 236.853C448.746 230.254 450.348 227.075 450.348 215.926V205.234C450.348 194.086 448.746 191.363 442.113 184.764L434.58 177.278ZM367.614 131.34H406.698C409.443 131.34 411.045 131.797 412.638 133.391L418.812 139.534C420.414 141.128 420.873 142.265 420.873 144.083V156.592C420.873 158.41 420.414 159.547 418.812 161.141L413.097 166.828C411.495 168.421 409.893 168.878 407.157 168.878H367.614V131.34ZM424.986 215.944C424.986 217.762 424.527 218.899 422.925 220.493L416.751 226.636C415.149 228.23 413.547 228.686 410.802 228.686H367.605V190.011H411.261C414.006 190.011 415.608 190.468 417.201 192.062L422.916 197.748C424.518 199.342 424.977 200.479 424.977 202.297V215.944H424.986Z" fill="black"/>
<path d="M293.969 124.731L293.989 124.71L150.405 1.26523C148.442 -0.421742 145.547 -0.421742 143.585 1.26523L0 124.71L0.0105101 124.731V235.311H0.0210202L143.585 358.734C145.547 360.423 148.442 360.423 150.405 358.734L293.969 235.311H294V124.731H293.969ZM163.214 31.2348L267.299 120.72C269.739 122.817 269.739 126.603 267.299 128.701L222.064 167.59C220.102 169.277 217.207 169.277 215.245 167.59L154.565 115.421V35.2251C154.565 30.735 159.816 28.3127 163.214 31.2348ZM146.995 17.2901L147.016 17.3112H146.974L146.995 17.2901ZM139.865 34.8459V115.042L78.7446 167.59C76.7826 169.277 73.887 169.277 71.925 167.59L26.6905 128.701C24.2509 126.603 24.2509 122.817 26.6905 120.72L131.216 30.8556C134.615 27.9336 139.865 30.3558 139.865 34.8459ZM23.3595 144.794L59.6688 176.01C62.1084 178.107 62.1084 181.893 59.6688 183.99L23.3595 215.206C19.9606 218.128 14.71 215.705 14.71 211.215V148.785C14.71 144.295 19.9606 141.872 23.3595 144.794ZM131.216 329.145L26.6905 239.28C24.2508 237.182 24.2508 233.397 26.6905 231.299L71.925 192.41C73.887 190.723 76.7826 190.723 78.7446 192.41L139.865 244.957V325.155C139.865 329.643 134.615 332.067 131.216 329.145ZM91.0008 183.99C88.5612 181.893 88.5612 178.107 91.0008 176.01L146.974 127.891L146.995 127.87L147.016 127.891L202.989 176.01C205.428 178.107 205.428 181.893 202.989 183.99L146.995 232.13L91.0008 183.99ZM154.565 324.774V244.583L154.568 244.575L215.245 192.41C217.207 190.723 220.102 190.723 222.064 192.41L267.299 231.299C269.739 233.397 269.739 237.182 267.299 239.28L163.214 328.764C159.816 331.686 154.565 329.265 154.565 324.774ZM270.651 215.226L234.32 183.99C231.881 181.893 231.881 178.107 234.32 176.01L270.651 144.774C274.05 141.852 279.301 144.274 279.301 148.764V211.236C279.301 215.726 274.05 218.148 270.651 215.226Z" fill="#FDB913"/>
</g>
<defs>
<clipPath id="clip0_1273_249">
<rect width="1566" height="360" fill="white"/>
</clipPath>
</defs>
</svg>
