<svg width="1746" height="240" viewBox="0 0 1746 240" fill="none" xmlns="http://www.w3.org/2000/svg">
<path fill-rule="evenodd" clip-rule="evenodd" d="M1740.66 81.2968V73.0078H1701.5C1697.95 73.0078 1694.54 74.4412 1692.05 76.9843L1686.16 83.0044C1683.75 85.4746 1682.4 88.7926 1682.4 92.2477V106.27C1682.4 109.266 1683.41 113.098 1685.07 116.339C1686.7 119.491 1689.24 122.657 1692.66 123.442L1692.85 123.487L1732.14 123.954C1732.34 124.045 1732.67 124.276 1733.09 124.805C1733.59 125.434 1734.07 126.313 1734.5 127.339C1735.37 129.421 1735.84 131.726 1735.84 133.002V147.291C1735.84 148.653 1735.27 149.954 1734.28 150.887L1727.35 157.384C1726.44 158.241 1725.24 158.719 1723.98 158.719H1685.62V167.008H1723.98C1727.34 167.008 1730.58 165.728 1733.03 163.429L1739.95 156.932C1742.62 154.433 1744.13 150.943 1744.13 147.291V133.002C1744.13 130.007 1743.12 126.174 1741.45 122.934C1739.83 119.781 1737.28 116.616 1733.87 115.831L1733.67 115.785L1694.38 115.319C1694.18 115.228 1693.85 114.997 1693.43 114.468C1692.94 113.838 1692.45 112.96 1692.02 111.933C1691.16 109.851 1690.69 107.547 1690.69 106.27V92.2477C1690.69 90.9589 1691.19 89.7214 1692.09 88.8001L1697.98 82.78C1698.91 81.8317 1700.18 81.2968 1701.5 81.2968H1740.66Z" fill="black"/>
<path fill-rule="evenodd" clip-rule="evenodd" d="M1660.64 118.926C1660.81 118.771 1660.98 118.616 1661.13 118.462L1663.91 115.696C1665.67 113.946 1666.88 112.407 1667.59 110.523C1668.28 108.672 1668.42 106.668 1668.42 104.159V93.25C1668.42 90.7411 1668.28 88.7371 1667.59 86.8855C1666.88 85.0015 1665.67 83.4634 1663.91 81.7132L1659.67 77.4928C1657.94 75.7717 1656.31 74.5828 1654.24 73.8748C1652.23 73.186 1649.96 73.0078 1647.06 73.0078H1611.25C1610.17 73.0078 1608.95 73.2202 1608.05 74.1589C1607.16 75.0811 1607 76.2874 1607 77.2438V162.772C1607 163.728 1607.16 164.935 1608.05 165.857C1608.95 166.795 1610.17 167.008 1611.25 167.008H1649.55C1652.44 167.008 1654.72 166.83 1656.73 166.141C1658.79 165.433 1660.43 164.244 1662.15 162.523L1666.4 158.303C1668.15 156.552 1669.36 155.014 1670.07 153.13C1670.77 151.279 1670.91 149.275 1670.91 146.766V136.149C1670.91 133.64 1670.77 131.636 1670.07 129.784C1669.36 127.9 1668.15 126.362 1666.4 124.612L1661.71 119.968L1661.71 119.965L1661.57 119.83C1661.26 119.52 1660.96 119.215 1660.64 118.926ZM1650.88 81.3556C1651.73 81.6382 1652.44 82.0966 1653.31 82.9678L1657.26 86.896C1658.58 88.2136 1659.09 88.8469 1659.36 89.5096C1659.64 90.1792 1659.77 91.0723 1659.77 93.1066V104.451C1659.77 106.482 1659.64 107.376 1659.36 108.046C1659.09 108.71 1658.58 109.345 1657.26 110.662L1654.92 112.987C1653.76 114.147 1653.08 114.572 1652.51 114.778C1651.89 114.997 1651.18 115.048 1649.69 115.048H1615.64V80.9068H1646.77C1648.75 80.9068 1649.97 81.0535 1650.88 81.3556ZM1661.85 132.273C1661.57 131.609 1661.07 130.974 1659.75 129.657L1655.94 125.877C1654.53 124.471 1653.73 123.771 1652.95 123.361C1652.25 122.995 1651.43 122.798 1649.84 122.798H1615.64V159.12H1649.26C1651.24 159.12 1652.46 158.975 1653.37 158.673C1654.22 158.392 1654.92 157.934 1655.8 157.059L1659.75 153.131C1661.07 151.815 1661.57 151.179 1661.85 150.516C1662.13 149.845 1662.25 148.952 1662.25 146.92V135.868C1662.25 133.837 1662.13 132.943 1661.85 132.273Z" fill="black"/>
<path fill-rule="evenodd" clip-rule="evenodd" d="M1571.78 79.7398C1570.3 77.098 1568.68 75.3076 1566.55 74.2501C1564.48 73.2172 1562.15 73.0078 1559.56 73.0078H1553.62C1551.02 73.0078 1548.7 73.2172 1546.62 74.2501C1544.5 75.3076 1542.88 77.0968 1541.4 79.7386L1526.77 105.824L1526.76 105.834C1525.13 108.782 1524.1 111.081 1523.5 113.629C1522.9 116.157 1522.76 118.824 1522.76 122.456V167.008H1531.18V140.061H1582V167.008H1590.43V122.456C1590.43 118.824 1590.28 116.155 1589.68 113.626C1589.08 111.077 1588.05 108.778 1586.42 105.833L1571.78 79.7398ZM1582 122.462V131.951H1531.18V122.462C1531.18 116.635 1531.86 113.527 1534.12 109.566L1548.46 84.0523V84.0487C1549.33 82.5058 1549.94 81.9184 1550.54 81.6118C1551.19 81.2782 1552.12 81.118 1554.05 81.118H1559.12C1561.06 81.118 1561.99 81.2782 1562.64 81.6118C1563.24 81.9184 1563.84 82.5058 1564.72 84.0487V84.0523L1579.05 109.556L1579.06 109.566C1581.31 113.527 1582 116.635 1582 122.462Z" fill="black"/>
<path fill-rule="evenodd" clip-rule="evenodd" d="M1459.5 158.971V73.0078H1450.86V162.772C1450.86 163.728 1451.02 164.934 1451.9 165.855C1452.8 166.795 1454.03 167.008 1455.1 167.008H1504.82V158.971H1459.5Z" fill="black"/>
<path d="M1367.21 127.291H1406.07V112.432H1367.21V87.8668H1413.99V73.0078H1354.86C1351.51 73.0078 1350.14 74.3749 1350.14 77.7061V162.309C1350.14 165.647 1351.51 167.008 1354.86 167.008H1415.05V152.149H1367.2V127.291H1367.21Z" fill="black"/>
<path d="M1321.95 131.687L1326.21 127.443C1330.63 123.049 1331.7 120.924 1331.7 113.492V96.0556C1331.7 88.624 1330.63 86.5048 1326.21 82.1053L1321.95 77.8612C1317.99 73.9213 1314.63 73.0078 1307.77 73.0078H1263.13C1259.77 73.0078 1258.41 74.3749 1258.41 77.7058V167.008H1275.47V136.534H1302.14L1314.48 167.008H1332.61L1318.9 134.26C1319.97 133.502 1320.88 132.75 1321.95 131.687ZM1314.78 113.188C1314.78 114.4 1314.48 115.158 1313.41 116.22L1309.29 120.315C1308.22 121.378 1307.16 121.682 1305.33 121.682H1275.47V87.8716H1305.18C1307.32 87.8716 1308.38 88.3252 1309.75 89.6923L1312.96 92.8741C1314.33 94.2412 1314.79 95.1484 1314.79 96.9691V113.188H1314.78Z" fill="black"/>
<path d="M1220.16 81.2668C1216.09 74.8111 1214.12 73.0078 1205.37 73.0078H1197.23C1188.47 73.0078 1186.52 74.8111 1182.44 81.2668L1167.65 104.991C1163.73 111.146 1163.12 115.952 1163.12 123.011V167.008H1179.87V143.136H1222.73V167.008H1239.48V123.011C1239.48 115.952 1238.87 111.152 1234.95 104.991L1220.16 81.2668ZM1222.72 128.415H1179.86V122.71C1179.86 118.205 1180.62 115.651 1182.58 112.5L1196.31 89.9752C1197.07 88.7752 1197.52 88.6213 1198.88 88.6213H1203.71C1205.07 88.6213 1205.52 88.7752 1206.28 89.9752L1220.01 112.5C1221.97 115.651 1222.72 118.205 1222.72 122.71V128.415Z" fill="black"/>
<path d="M1128.04 125.713C1128.04 127.215 1127.58 128.267 1126.68 129.467L1109.63 152.139L1092.58 129.467C1091.67 128.267 1091.21 127.215 1091.21 125.713V73.0078H1074.32V125.713C1074.32 127.215 1073.87 128.267 1072.96 129.467L1055.9 152.139L1038.85 129.467C1037.95 128.267 1037.49 127.215 1037.49 125.713V73.0078H1020.59V124.962C1020.59 131.719 1021.8 134.12 1025.12 138.477L1042.93 161.9C1045.34 165.051 1048.21 167.008 1053.94 167.008H1057.87C1063.61 167.008 1066.47 165.057 1068.89 161.9L1082.77 143.733L1096.66 161.9C1099.07 165.051 1101.94 167.008 1107.68 167.008H1111.6C1117.34 167.008 1120.2 165.057 1122.62 161.9L1140.42 138.477C1143.75 134.126 1144.95 131.719 1144.95 124.962V73.0078H1128.05V125.713H1128.04Z" fill="black"/>
<path d="M991.719 118.193L993.699 116.223C998.121 111.823 999.339 109.25 999.339 102.576V96.0571C999.339 88.6249 998.271 86.5054 993.849 82.1059L989.583 77.8612C985.623 73.9213 982.725 73.0078 976.323 73.0078H934.722C931.368 73.0078 930 74.3749 930 77.7061V162.309C930 165.647 931.374 167.008 934.722 167.008H979.215C985.617 167.008 988.515 166.1 992.475 162.154L996.741 157.91C1001.16 153.51 1002.23 151.391 1002.23 143.959V136.831C1002.23 129.398 1001.16 127.584 996.741 123.184L991.719 118.193ZM947.076 87.568H973.131C974.961 87.568 976.029 87.8728 977.091 88.9354L981.207 93.0304C982.275 94.093 982.581 94.8514 982.581 96.0631V104.403C982.581 105.615 982.275 106.373 981.207 107.436L977.397 111.226C976.329 112.289 975.261 112.593 973.437 112.593H947.076V87.568ZM985.323 143.97C985.323 145.182 985.017 145.941 983.949 147.003L979.833 151.098C978.765 152.161 977.697 152.465 975.867 152.465H947.07V126.682H976.173C978.003 126.682 979.071 126.987 980.133 128.049L983.943 131.84C985.011 132.903 985.317 133.661 985.317 134.873V143.97H985.323Z" fill="black"/>
<path d="M897.978 83.154L897.993 83.1399L802.269 0.843483C800.961 -0.281161 799.032 -0.281161 797.724 0.843483L702 83.1399L702.006 83.154V156.874H702.015L797.724 239.155C799.032 240.281 800.961 240.281 802.269 239.155L897.978 156.874H897.999V83.154H897.978ZM810.81 20.8232L880.2 80.4798C881.826 81.8781 881.826 84.4017 880.2 85.8003L850.044 111.727C848.736 112.851 846.804 112.851 845.496 111.727L805.044 76.9473V23.4833C805.044 20.49 808.545 18.8751 810.81 20.8232ZM799.995 11.5267L800.01 11.5408H799.983L799.995 11.5267ZM795.243 23.2306V76.6947L754.497 111.727C753.189 112.851 751.257 112.851 749.949 111.727L719.793 85.8003C718.167 84.4017 718.167 81.8781 719.793 80.4798L789.477 20.5704C791.742 18.6224 795.243 20.2372 795.243 23.2306ZM717.573 96.5295L741.78 117.34C743.406 118.738 743.406 121.262 741.78 122.66L717.573 143.47C715.308 145.418 711.807 143.803 711.807 140.81V99.1896C711.807 96.1962 715.308 94.5813 717.573 96.5295ZM789.477 219.43L719.793 159.52C718.167 158.121 718.167 155.598 719.793 154.199L749.949 128.273C751.257 127.148 753.189 127.148 754.497 128.273L795.243 163.305V216.77C795.243 219.761 791.742 221.378 789.477 219.43ZM762.666 122.66C761.04 121.262 761.04 118.738 762.666 117.34L799.983 85.2603L799.995 85.2462L800.01 85.2603L837.327 117.34C838.953 118.738 838.953 121.262 837.327 122.66L799.995 154.753L762.666 122.66ZM805.044 216.515V163.055V163.05L845.496 128.273C846.804 127.148 848.736 127.148 850.044 128.273L880.2 154.199C881.826 155.598 881.826 158.121 880.2 159.52L810.81 219.176C808.545 221.123 805.044 219.509 805.044 216.515ZM882.435 143.484L858.213 122.66C856.587 121.262 856.587 118.738 858.213 117.34L882.435 96.5157C884.7 94.5675 888.201 96.1827 888.201 99.1761V140.824C888.201 143.817 884.7 145.432 882.435 143.484Z" fill="black"/>
<path d="M660 90.3438L623.964 176.765C623.493 177.777 622.917 178.568 622.233 179.14C621.591 179.712 620.586 179.998 619.218 179.998H609.021L621.078 153.082L594.402 90.3438H606.393C607.548 90.3438 608.424 90.6297 609.021 91.2015C609.663 91.7292 610.134 92.3669 610.434 93.1145L626.016 131.311C626.4 132.411 626.742 133.51 627.042 134.61C627.384 135.666 627.702 136.765 628.002 137.908C628.344 136.765 628.686 135.643 629.028 134.544C629.37 133.444 629.754 132.345 630.183 131.245L645.123 93.1145C645.423 92.3231 645.915 91.6631 646.599 91.1354C647.325 90.6077 648.117 90.3438 648.972 90.3438H660Z" fill="black"/>
<path d="M545.12 140.748C547.043 143.299 549.137 145.102 551.402 146.157C553.712 147.169 556.211 147.674 558.905 147.674C564.335 147.674 568.565 145.652 571.601 141.605C574.637 137.559 576.155 131.292 576.155 122.804C576.155 115.063 574.829 109.412 572.18 105.849C569.57 102.287 565.832 100.506 560.957 100.506C557.579 100.506 554.63 101.297 552.107 102.881C549.629 104.42 547.298 106.641 545.12 109.544V140.748ZM545.12 99.2523C547.811 96.2178 550.826 93.7989 554.159 91.9956C557.495 90.1923 561.299 89.2908 565.574 89.2908C569.378 89.2908 572.798 90.0606 575.834 91.5999C578.912 93.0951 581.519 95.2722 583.658 98.1309C585.794 100.99 587.441 104.464 588.593 108.554C589.748 112.6 590.324 117.174 590.324 122.276C590.324 127.73 589.664 132.699 588.338 137.185C587.054 141.627 585.197 145.453 582.758 148.664C580.322 151.831 577.373 154.294 573.911 156.053C570.446 157.768 566.579 158.626 562.304 158.626C560.21 158.626 558.308 158.406 556.598 157.966C554.888 157.57 553.304 156.976 551.852 156.185C550.397 155.393 549.053 154.448 547.811 153.348C546.614 152.249 545.462 150.995 544.349 149.588L543.773 154.799C543.557 155.811 543.173 156.537 542.618 156.977C542.063 157.416 541.292 157.636 540.311 157.636H531.332V60H545.12V99.2523Z" fill="black"/>
<path d="M468.754 106.905C466.831 104.354 464.713 102.573 462.406 101.561C460.096 100.55 457.597 100.044 454.903 100.044C449.518 100.044 445.306 102.089 442.27 106.179C439.237 110.225 437.719 116.229 437.719 124.189C437.719 128.323 438.061 131.864 438.745 134.81C439.429 137.713 440.41 140.088 441.694 141.935C442.975 143.782 444.535 145.124 446.374 145.959C448.213 146.795 450.286 147.213 452.596 147.213C456.1 147.213 459.115 146.443 461.635 144.904C464.2 143.321 466.573 141.1 468.754 138.241V106.905ZM482.539 60V157.636H474.205C472.366 157.636 471.19 156.734 470.677 154.931L469.459 147.609C466.723 150.907 463.603 153.568 460.096 155.591C456.634 157.614 452.596 158.626 447.979 158.626C444.301 158.626 440.968 157.878 437.974 156.382C434.983 154.843 432.418 152.622 430.279 149.72C428.143 146.817 426.475 143.233 425.278 138.967C424.123 134.657 423.547 129.731 423.547 124.189C423.547 119.175 424.189 114.536 425.47 110.27C426.796 106.003 428.677 102.309 431.113 99.1863C433.549 96.0198 436.501 93.5568 439.963 91.7976C443.467 89.9946 447.379 89.0928 451.696 89.0928C455.545 89.0928 458.815 89.7306 461.509 91.0059C464.2 92.2374 466.615 93.9747 468.754 96.2178V60H482.539Z" fill="black"/>
<path d="M401.776 116.403C401.776 114.028 401.434 111.829 400.75 109.806C400.111 107.739 399.148 105.958 397.867 104.462C396.583 102.923 394.981 101.735 393.055 100.9C391.174 100.02 388.996 99.5806 386.515 99.5806C381.514 99.5806 377.581 101.054 374.716 104C371.854 106.947 370.036 111.081 369.268 116.403H401.776ZM368.881 125.111C369.052 128.937 369.631 132.258 370.612 135.072C371.596 137.843 372.901 140.152 374.524 141.999C376.192 143.846 378.157 145.232 380.425 146.156C382.732 147.035 385.297 147.475 388.12 147.475C390.811 147.475 393.142 147.167 395.107 146.551C397.075 145.892 398.785 145.188 400.237 144.44C401.692 143.649 402.931 142.945 403.957 142.329C404.983 141.67 405.925 141.34 406.78 141.34C407.89 141.34 408.745 141.779 409.345 142.659L413.254 147.871C411.631 149.85 409.792 151.521 407.74 152.885C405.688 154.248 403.507 155.369 401.2 156.249C398.893 157.085 396.52 157.678 394.081 158.03C391.645 158.426 389.272 158.624 386.965 158.624C382.432 158.624 378.223 157.854 374.332 156.315C370.486 154.732 367.129 152.423 364.264 149.388C361.444 146.353 359.221 142.593 357.595 138.107C356.014 133.621 355.225 128.453 355.225 122.604C355.225 117.942 355.93 113.588 357.34 109.542C358.792 105.496 360.844 101.977 363.496 98.9869C366.19 95.9962 369.439 93.6433 373.243 91.9279C377.089 90.1687 381.43 89.2891 386.26 89.2891C390.277 89.2891 393.997 89.9707 397.417 91.3342C400.837 92.6536 403.786 94.6108 406.267 97.2055C408.745 99.8005 410.668 102.989 412.036 106.771C413.446 110.51 414.154 114.776 414.154 119.57C414.154 121.769 413.917 123.242 413.446 123.989C412.978 124.737 412.123 125.111 410.884 125.111H368.881Z" fill="black"/>
<path d="M326.808 102.816C328.86 98.5494 331.341 95.2072 334.248 92.7883C337.155 90.3253 340.638 89.0938 344.7 89.0938C346.11 89.0938 347.436 89.2699 348.675 89.6218C349.914 89.9296 351.024 90.4132 352.008 91.0729L351.048 101.76C350.877 102.508 350.598 103.036 350.214 103.343C349.872 103.607 349.401 103.739 348.804 103.739C348.162 103.739 347.241 103.629 346.044 103.409C344.847 103.145 343.587 103.013 342.261 103.013C340.338 103.013 338.628 103.299 337.131 103.871C335.679 104.443 334.353 105.278 333.156 106.378C332.001 107.477 330.975 108.819 330.078 110.402C329.181 111.986 328.347 113.789 327.579 115.812V157.637H313.791V90.3472H321.807C323.259 90.3472 324.264 90.6331 324.822 91.2049C325.377 91.7326 325.761 92.6782 325.974 94.0417L326.808 102.816Z" fill="black"/>
<path d="M288.559 116.403C288.559 114.028 288.217 111.829 287.533 109.806C286.892 107.739 285.93 105.958 284.648 104.462C283.365 102.923 281.762 101.735 279.839 100.9C277.958 100.02 275.777 99.5806 273.298 99.5806C268.296 99.5806 264.363 101.054 261.499 104C258.635 106.947 256.818 111.081 256.049 116.403H288.559ZM255.664 125.111C255.835 128.937 256.412 132.258 257.396 135.072C258.379 137.843 259.682 140.152 261.307 141.999C262.974 143.846 264.941 145.232 267.206 146.156C269.515 147.035 272.08 147.475 274.901 147.475C277.594 147.475 279.924 147.167 281.89 146.551C283.857 145.892 285.567 145.188 287.02 144.44C288.474 143.649 289.713 142.945 290.739 142.329C291.765 141.67 292.706 141.34 293.561 141.34C294.672 141.34 295.527 141.779 296.126 142.659L300.036 147.871C298.413 149.85 296.575 151.521 294.523 152.885C292.471 154.248 290.291 155.369 287.982 156.249C285.674 157.085 283.301 157.678 280.864 158.03C278.428 158.426 276.055 158.624 273.747 158.624C269.216 158.624 265.005 157.854 261.115 156.315C257.267 154.732 253.911 152.423 251.047 149.388C248.226 146.353 246.003 142.593 244.379 138.107C242.797 133.621 242.006 128.453 242.006 122.604C242.006 117.942 242.711 113.588 244.122 109.542C245.576 105.496 247.627 101.977 250.278 98.9869C252.971 95.9962 256.22 93.6433 260.024 91.9279C263.872 90.1687 268.211 89.2891 273.041 89.2891C277.06 89.2891 280.779 89.9707 284.199 91.3342C287.619 92.6536 290.568 94.6108 293.048 97.2055C295.527 99.8005 297.451 102.989 298.819 106.771C300.228 110.51 300.936 114.776 300.936 119.57C300.936 121.769 300.699 123.242 300.228 123.989C299.759 124.737 298.904 125.111 297.665 125.111H255.664Z" fill="black"/>
<path d="M236.605 90.3426L215.637 157.633H204.672C203.389 157.633 202.492 156.775 201.979 155.06L188.962 113.168C188.62 111.981 188.299 110.794 188 109.606C187.743 108.419 187.508 107.253 187.295 106.11C186.824 108.485 186.247 110.86 185.563 113.234L172.354 155.06C171.884 156.775 170.879 157.633 169.34 157.633H158.888L137.92 90.3426H148.821C149.889 90.3426 150.766 90.6285 151.45 91.2003C152.177 91.728 152.647 92.3658 152.861 93.1134L163.761 132.3C164.189 134.103 164.552 135.862 164.852 137.578C165.194 139.249 165.493 140.92 165.749 142.591C166.177 140.92 166.625 139.249 167.096 137.578C167.566 135.862 168.058 134.103 168.571 132.3L180.818 92.9157C181.032 92.124 181.459 91.4862 182.1 91.0023C182.784 90.4746 183.597 90.2109 184.537 90.2109H190.565C191.548 90.2109 192.382 90.4746 193.066 91.0023C193.749 91.4862 194.198 92.124 194.412 92.9157L206.339 132.3C206.852 134.103 207.322 135.862 207.75 137.578C208.22 139.293 208.647 141.008 209.032 142.723C209.331 141.052 209.652 139.359 209.994 137.644C210.336 135.928 210.742 134.147 211.212 132.3L222.305 93.1134C222.562 92.322 223.032 91.662 223.716 91.1343C224.4 90.6066 225.234 90.3426 226.217 90.3426H236.605Z" fill="black"/>
<path d="M100.733 89.2891C105.563 89.2891 109.923 90.1027 113.813 91.7299C117.746 93.3574 121.081 95.6662 123.817 98.6569C126.595 101.648 128.733 105.276 130.229 109.542C131.725 113.808 132.473 118.602 132.473 123.923C132.473 129.245 131.725 134.039 130.229 138.305C128.733 142.571 126.595 146.222 123.817 149.256C121.081 152.247 117.746 154.556 113.813 156.183C109.923 157.81 105.563 158.624 100.733 158.624C95.8591 158.624 91.456 157.81 87.5233 156.183C83.6329 154.556 80.2987 152.247 77.5201 149.256C74.7412 146.222 72.604 142.571 71.1076 138.305C69.6115 134.039 68.8633 129.245 68.8633 123.923C68.8633 118.602 69.6115 113.808 71.1076 109.542C72.604 105.276 74.7412 101.648 77.5201 98.6569C80.2987 95.6662 83.6329 93.3574 87.5233 91.7299C91.456 90.1027 95.8591 89.2891 100.733 89.2891ZM100.733 147.541C106.632 147.541 111.014 145.518 113.878 141.472C116.785 137.381 118.238 131.554 118.238 123.989C118.238 116.425 116.785 110.597 113.878 106.507C111.014 102.373 106.632 100.306 100.733 100.306C94.7476 100.306 90.3019 102.373 87.3949 106.507C84.4879 110.597 83.0347 116.425 83.0347 123.989C83.0347 131.554 84.4879 137.381 87.3949 141.472C90.3019 145.518 94.7476 147.541 100.733 147.541Z" fill="black"/>
<path d="M28.7271 111.063C32.0616 111.063 34.9896 110.623 37.512 109.743C40.0767 108.864 42.1929 107.633 43.86 106.049C45.57 104.422 46.8525 102.465 47.7075 100.178C48.5625 97.8906 48.99 95.34 48.99 92.5251C48.99 89.7543 48.5625 87.2694 47.7075 85.0704C46.8951 82.8714 45.6555 81.0024 43.9884 79.4631C42.321 77.9238 40.2051 76.7583 37.6401 75.9666C35.118 75.1311 32.1471 74.7132 28.7271 74.7132H15.0048V111.063H28.7271ZM28.7271 62.6406C34.7547 62.6406 39.9699 63.3663 44.373 64.8177C48.819 66.2691 52.4739 68.3142 55.338 70.953C58.245 73.5477 60.4038 76.6923 61.8144 80.3865C63.2253 84.0369 63.9306 88.0833 63.9306 92.5251C63.9306 97.0551 63.1824 101.211 61.6863 104.993C60.1899 108.732 57.9672 111.965 55.0176 114.691C52.0677 117.374 48.3915 119.485 43.9884 121.024C39.6279 122.52 34.5408 123.267 28.7271 123.267H15.0048V157.638H0V62.6406H28.7271Z" fill="black"/>
</svg>
