<svg width="327" height="400" viewBox="0 0 327 400" fill="none" xmlns="http://www.w3.org/2000/svg">
<g clip-path="url(#clip0_1270_613)">
<path d="M326.632 138.59L326.655 138.567L167.116 1.40581C164.936 -0.468603 161.719 -0.468603 159.539 1.40581L0 138.567L0.0116779 138.59V261.456H0.0233558L159.539 398.593C161.719 400.47 164.936 400.47 167.116 398.593L326.632 261.456H326.667V138.59H326.632ZM181.349 34.7053L296.999 134.133C299.71 136.464 299.71 140.67 296.999 143.001L246.738 186.211C244.558 188.086 241.341 188.086 239.161 186.211L171.739 128.246V39.139C171.739 34.15 177.573 31.4586 181.349 34.7053ZM163.327 19.2112L163.351 19.2346H163.304L163.327 19.2112ZM155.406 38.7177V127.825L87.494 186.211C85.314 188.086 82.0967 188.086 79.9167 186.211L29.6561 143.001C26.9454 140.67 26.9454 136.464 29.6561 134.133L145.795 34.284C149.572 31.0374 155.406 33.7287 155.406 38.7177ZM25.955 160.883L66.2987 195.566C69.0093 197.897 69.0093 202.103 66.2987 204.434L25.955 239.117C22.1785 242.364 16.3444 239.672 16.3444 234.684V165.316C16.3444 160.327 22.1785 157.636 25.955 160.883ZM145.795 365.717L29.6561 265.867C26.9454 263.536 26.9454 259.33 29.6561 256.999L79.9167 213.789C82.0967 211.914 85.314 211.914 87.494 213.789L155.406 272.175V361.283C155.406 366.27 149.572 368.963 145.795 365.717ZM101.112 204.434C98.4013 202.103 98.4013 197.897 101.112 195.566L163.304 142.101L163.327 142.077L163.351 142.101L225.543 195.566C228.254 197.897 228.254 202.103 225.543 204.434L163.327 257.923L101.112 204.434ZM171.739 360.86V271.759L171.743 271.75L239.161 213.789C241.341 211.914 244.558 211.914 246.738 213.789L296.999 256.999C299.71 259.33 299.71 263.536 296.999 265.867L181.349 365.293C177.573 368.54 171.739 365.85 171.739 360.86ZM300.723 239.14L260.356 204.433C257.645 202.103 257.645 197.897 260.356 195.566L300.723 160.86C304.5 157.613 310.334 160.305 310.334 165.294V234.706C310.334 239.695 304.5 242.387 300.723 239.14Z" fill="#FDB913"/>
</g>
<defs>
<clipPath id="clip0_1270_613">
<rect width="326.667" height="400" fill="white"/>
</clipPath>
</defs>
</svg>
