<svg width="396" height="400" viewBox="0 0 396 400" fill="none" xmlns="http://www.w3.org/2000/svg">
<g clip-path="url(#clip0_1273_282)">
<path fill-rule="evenodd" clip-rule="evenodd" d="M313.662 330.318V323.578H281.828C278.935 323.578 276.166 324.744 274.143 326.811L269.358 331.705C267.394 333.713 266.293 336.411 266.293 339.22V350.62C266.293 353.056 267.116 356.172 268.47 358.806C269.789 361.37 271.857 363.944 274.634 364.581L274.794 364.619L306.735 364.998C306.901 365.072 307.169 365.259 307.509 365.689C307.914 366.201 308.308 366.915 308.656 367.75C309.36 369.443 309.743 371.316 309.743 372.354V383.97C309.743 385.079 309.285 386.136 308.477 386.894L302.846 392.177C302.103 392.874 301.122 393.261 300.103 393.261H268.912V400.001H300.103C302.834 400.001 305.464 398.96 307.457 397.092L313.088 391.809C315.254 389.778 316.482 386.941 316.482 383.97V372.354C316.482 369.92 315.66 366.803 314.306 364.168C312.987 361.606 310.919 359.032 308.14 358.393L307.981 358.357L276.041 357.978C275.875 357.903 275.607 357.715 275.267 357.285C274.862 356.773 274.467 356.059 274.121 355.225C273.417 353.533 273.033 351.658 273.033 350.62V339.22C273.033 338.172 273.443 337.167 274.176 336.417L278.961 331.523C279.716 330.752 280.75 330.318 281.828 330.318H313.662Z" fill="black"/>
<path fill-rule="evenodd" clip-rule="evenodd" d="M248.607 360.91C248.743 360.785 248.877 360.658 249.002 360.533L251.262 358.284C252.691 356.861 253.675 355.611 254.251 354.079C254.815 352.573 254.929 350.944 254.929 348.905V340.035C254.929 337.996 254.815 336.367 254.251 334.861C253.675 333.329 252.691 332.079 251.262 330.656L247.813 327.224C246.407 325.825 245.083 324.858 243.402 324.282C241.768 323.723 239.919 323.578 237.565 323.578H208.451C207.574 323.578 206.574 323.75 205.843 324.515C205.122 325.264 204.992 326.245 204.992 327.022V396.557C204.992 397.334 205.122 398.315 205.843 399.064C206.574 399.829 207.574 400.001 208.451 400.001H239.586C241.939 400.001 243.787 399.856 245.421 399.297C247.103 398.721 248.428 397.754 249.834 396.355L253.283 392.923C254.713 391.5 255.696 390.25 256.272 388.718C256.838 387.214 256.952 385.583 256.952 383.544V374.911C256.952 372.872 256.838 371.243 256.272 369.737C255.696 368.206 254.713 366.955 253.283 365.533L249.475 361.757L249.472 361.755L249.361 361.645C249.109 361.393 248.86 361.146 248.607 360.91ZM240.669 330.365C241.361 330.594 241.934 330.967 242.646 331.676L245.856 334.869C246.932 335.941 247.342 336.456 247.566 336.994C247.792 337.539 247.891 338.264 247.891 339.918V349.142C247.891 350.793 247.792 351.52 247.566 352.064C247.342 352.604 246.932 353.121 245.856 354.191L243.956 356.081C243.008 357.025 242.459 357.37 241.989 357.537C241.49 357.715 240.916 357.757 239.703 357.757H212.02V329.999H237.326C238.94 329.999 239.929 330.12 240.669 330.365ZM249.587 371.76C249.363 371.222 248.953 370.705 247.877 369.635L244.782 366.56C243.636 365.417 242.991 364.848 242.355 364.516C241.786 364.219 241.114 364.058 239.82 364.058H212.02V393.588H239.348C240.963 393.588 241.95 393.471 242.69 393.225C243.379 392.996 243.953 392.624 244.667 391.913L247.877 388.72C248.953 387.648 249.363 387.133 249.587 386.593C249.813 386.048 249.914 385.321 249.914 383.669V374.684C249.914 373.032 249.813 372.307 249.587 371.76Z" fill="black"/>
<path fill-rule="evenodd" clip-rule="evenodd" d="M176.362 329.051L176.36 329.05C175.153 326.902 173.84 325.448 172.113 324.588C170.425 323.749 168.534 323.578 166.423 323.578H161.596C159.485 323.578 157.596 323.749 155.907 324.588C154.18 325.448 152.866 326.902 151.659 329.05L139.767 350.258L139.762 350.266C138.437 352.663 137.596 354.531 137.108 356.604C136.625 358.659 136.51 360.827 136.51 363.78V400.001H143.357V378.094H184.672V400.001H191.519V363.78C191.519 360.827 191.402 358.656 190.918 356.601C190.43 354.529 189.588 352.659 188.262 350.266L176.362 329.051ZM184.667 363.785V371.5H143.352V363.785C143.352 359.046 143.908 356.52 145.742 353.3L157.399 332.557L157.401 332.554C158.113 331.3 158.606 330.822 159.09 330.573C159.617 330.302 160.378 330.172 161.949 330.172H166.071C167.643 330.172 168.402 330.302 168.929 330.573C169.414 330.822 169.906 331.3 170.619 332.554L170.62 332.557L182.272 353.292L182.277 353.3C184.113 356.52 184.667 359.046 184.667 363.785Z" fill="black"/>
<path fill-rule="evenodd" clip-rule="evenodd" d="M85.0765 393.468V323.578H78.0488V396.557C78.0488 397.334 78.1789 398.315 78.896 399.064C79.6277 399.827 80.6277 400.001 81.5009 400.001H121.917V393.468H85.0765Z" fill="black"/>
<path d="M355.456 265.274H387.05V253.193H355.456V233.22H393.489V221.141H345.417C342.69 221.141 341.578 222.251 341.578 224.96V293.744C341.578 296.456 342.695 297.563 345.417 297.563H394.352V285.484H355.451V265.274H355.456Z" fill="black"/>
<path d="M318.655 268.848L322.123 265.396C325.718 261.825 326.581 260.097 326.581 254.054V239.879C326.581 233.837 325.713 232.113 322.123 228.537L318.655 225.087C315.435 221.884 312.708 221.141 307.134 221.141H270.835C268.108 221.141 266.996 222.251 266.996 224.96V297.563H280.873V272.788H302.554L312.586 297.563H327.328L316.177 270.939C317.045 270.323 317.786 269.711 318.655 268.848ZM312.83 253.807C312.83 254.793 312.581 255.409 311.715 256.272L308.368 259.602C307.5 260.466 306.632 260.713 305.149 260.713H280.868V233.225H305.027C306.764 233.225 307.627 233.594 308.744 234.705L311.349 237.292C312.464 238.404 312.835 239.141 312.835 240.622V253.807H312.83Z" fill="black"/>
<path d="M235.908 227.856C232.595 222.607 231 221.141 223.884 221.141H217.261C210.146 221.141 208.551 222.607 205.237 227.856L193.214 247.144C190.027 252.147 189.531 256.054 189.531 261.794V297.563H203.151V278.155H237.995V297.563H251.613V261.794C251.613 256.054 251.118 252.152 247.93 247.144L235.908 227.856ZM237.99 266.186H203.146V261.549C203.146 257.885 203.761 255.809 205.354 253.248L216.518 234.936C217.131 233.96 217.497 233.835 218.603 233.835H222.531C223.639 233.835 224.006 233.96 224.619 234.936L235.782 253.248C237.377 255.809 237.99 257.885 237.99 261.549V266.186Z" fill="black"/>
<path d="M161.012 263.991C161.012 265.211 160.64 266.066 159.905 267.043L146.041 285.476L132.178 267.043C131.443 266.066 131.071 265.211 131.071 263.991V221.141H117.332V263.991C117.332 265.211 116.966 266.066 116.227 267.043L102.363 285.476L88.4982 267.043C87.7649 266.066 87.3925 265.211 87.3925 263.991V221.141H73.6543V263.38C73.6543 268.874 74.6348 270.825 77.3356 274.367L91.812 293.411C93.773 295.973 96.1063 297.563 100.768 297.563H103.962C108.623 297.563 110.957 295.976 112.918 293.411L124.207 278.64L135.497 293.411C137.458 295.973 139.791 297.563 144.453 297.563H147.645C152.306 297.563 154.64 295.976 156.601 293.411L171.079 274.367C173.78 270.83 174.76 268.874 174.76 263.38V221.141H161.022V263.991H161.012Z" fill="black"/>
<path d="M50.1789 257.877L51.7886 256.276C55.3837 252.698 56.374 250.606 56.374 245.18V239.88C56.374 233.838 55.5057 232.115 51.9106 228.537L48.4423 225.087C45.2228 221.884 42.8667 221.141 37.6618 221.141H3.83902C1.1122 221.141 0 222.251 0 224.96V293.744C0 296.456 1.11707 297.563 3.83902 297.563H40.013C45.2179 297.563 47.574 296.825 50.7935 293.617L54.2618 290.167C57.8569 286.589 58.7252 284.867 58.7252 278.824V273.028C58.7252 266.986 57.8569 265.511 54.2618 261.934L50.1789 257.877ZM13.8829 232.978H35.0667C36.5545 232.978 37.4228 233.225 38.2862 234.09L41.6325 237.419C42.5008 238.284 42.7496 238.9 42.7496 239.885V246.664C42.7496 247.65 42.5008 248.266 41.6325 249.131L38.535 252.212C37.6667 253.076 36.7984 253.324 35.3154 253.324H13.8829V232.978ZM44.9789 278.833C44.9789 279.819 44.7301 280.435 43.8618 281.3L40.5154 284.628C39.6472 285.493 38.7789 285.741 37.2911 285.741H13.878V264.778H37.5398C39.0276 264.778 39.8959 265.025 40.7593 265.89L43.8569 268.972C44.7252 269.835 44.974 270.451 44.974 271.437V278.833H44.9789Z" fill="black"/>
<path d="M276.406 67.605L276.415 67.5937L198.593 0.68576C197.529 -0.228587 195.96 -0.228587 194.897 0.68576L117.072 67.5937L117.078 67.605V127.54H117.084L194.897 194.436C195.96 195.351 197.529 195.351 198.593 194.436L276.406 127.54H276.422V67.605H276.406ZM205.536 16.9294L261.95 65.4309C263.272 66.5676 263.272 68.6195 261.95 69.7564L237.432 90.8348C236.368 91.7491 234.799 91.7491 233.736 90.8348L200.848 62.559V19.0922C200.848 16.6585 203.693 15.3457 205.536 16.9294ZM196.744 9.37133L196.755 9.38275H196.732L196.744 9.37133ZM192.88 18.8867V62.3537L159.752 90.8348C158.689 91.7491 157.119 91.7491 156.056 90.8348L131.539 69.7564C130.216 68.6195 130.216 66.5676 131.539 65.4309L188.193 16.7239C190.035 15.1402 192.88 16.453 192.88 18.8867ZM129.733 78.4794L149.413 95.3982C150.735 96.535 150.735 98.5868 149.413 99.7237L129.733 116.643C127.891 118.226 125.045 116.913 125.045 114.48V80.6421C125.045 78.2085 127.891 76.8956 129.733 78.4794ZM188.193 178.398L131.539 129.691C130.216 128.554 130.216 126.502 131.539 125.366L156.056 104.287C157.119 103.373 158.689 103.373 159.752 104.287L192.88 132.768V176.236C192.88 178.668 190.035 179.982 188.193 178.398ZM166.396 99.7237C165.072 98.587 165.072 96.535 166.396 95.3982L196.732 69.3174L196.744 69.306L196.755 69.3174L227.093 95.3982C228.415 96.535 228.415 98.587 227.093 99.7237L196.744 125.816L166.396 99.7237ZM200.848 176.029V132.565L200.85 132.561L233.736 104.287C234.799 103.373 236.368 103.373 237.432 104.287L261.95 125.366C263.272 126.502 263.272 128.554 261.95 129.691L205.536 178.192C203.693 179.776 200.848 178.463 200.848 176.029ZM263.767 116.654L244.076 99.7236C242.754 98.5868 242.754 96.5351 244.076 95.3982L263.767 78.4683C265.609 76.8844 268.454 78.1974 268.454 80.6311V114.491C268.454 116.925 265.609 118.237 263.767 116.654Z" fill="#FDB913"/>
</g>
<defs>
<clipPath id="clip0_1273_282">
<rect width="395.122" height="400" fill="white"/>
</clipPath>
</defs>
</svg>
